<svg xmlns="http://www.w3.org/2000/svg" xmlns:xlink="http://www.w3.org/1999/xlink" width="2000" zoomAndPan="magnify" viewBox="0 0 1500 1499.999933" height="2000" preserveAspectRatio="xMidYMid meet" version="1.0"><defs><clipPath id="6a0847001b"><path d="M 90 668 L 687 668 L 687 1215.71875 L 90 1215.71875 Z M 90 668 " clip-rule="nonzero"/></clipPath><clipPath id="4b99a03a2e"><path d="M 578 334 L 1278 334 L 1278 1215.71875 L 578 1215.71875 Z M 578 334 " clip-rule="nonzero"/></clipPath><clipPath id="32117acf9a"><path d="M 794 288 L 1458.730469 288 L 1458.730469 1215.71875 L 794 1215.71875 Z M 794 288 " clip-rule="nonzero"/></clipPath><clipPath id="aca309d2a2"><path d="M 92 287 L 809 287 L 809 1215.71875 L 92 1215.71875 Z M 92 287 " clip-rule="nonzero"/></clipPath><clipPath id="5085b92dae"><path d="M 249 295 L 999 295 L 999 1215.71875 L 249 1215.71875 Z M 249 295 " clip-rule="nonzero"/></clipPath><clipPath id="13f604e64d"><path d="M 448 291 L 1136 291 L 1136 1215.71875 L 448 1215.71875 Z M 448 291 " clip-rule="nonzero"/></clipPath><clipPath id="f5a297580d"><path d="M 719 287 L 1339 287 L 1339 1215.71875 L 719 1215.71875 Z M 719 287 " clip-rule="nonzero"/></clipPath><clipPath id="3d491e3c59"><path d="M 88.480469 286 L 234 286 L 234 582 L 88.480469 582 Z M 88.480469 286 " clip-rule="nonzero"/></clipPath><clipPath id="adada0ca57"><path d="M 552 284.21875 L 698 284.21875 L 698 584 L 552 584 Z M 552 284.21875 " clip-rule="nonzero"/></clipPath><clipPath id="dc7c16671a"><path d="M 88.480469 619 L 207 619 L 207 914 L 88.480469 914 Z M 88.480469 619 " clip-rule="nonzero"/></clipPath></defs><g clip-path="url(#6a0847001b)"><path fill="#fed305" d="M 90.105469 907.09375 L 146.175781 668.335938 L 416.152344 701.554688 L 686.082031 1215.71875 L 365.484375 1215.71875 Z M 90.105469 907.09375 " fill-opacity="1" fill-rule="nonzero"/></g><g clip-path="url(#4b99a03a2e)"><path fill="#fed305" d="M 578.140625 401.855469 L 611.367188 334.078125 L 694.4375 334.078125 L 895.878906 541.691406 L 1043.328125 749.308594 L 1277.226562 1215.71875 L 1133.839844 1215.71875 L 855.386719 807.070312 L 605.136719 535.464844 Z M 578.140625 401.855469 " fill-opacity="1" fill-rule="nonzero"/></g><g clip-path="url(#32117acf9a)"><path fill="#fed305" d="M 794.121094 329.925781 L 854.347656 288.402344 L 1458.496094 1215.71875 L 1335.394531 1215.71875 Z M 794.121094 329.925781 " fill-opacity="1" fill-rule="nonzero"/></g><g clip-path="url(#aca309d2a2)"><path fill="#fed305" d="M 124.929688 287.289062 L 185.15625 287.289062 L 297.78125 489.789062 L 297.78125 423.351562 L 808.660156 564.53125 L 739.644531 1161.347656 L 780.773438 1215.71875 L 645.5 1215.71875 L 362.15625 875.953125 L 92.183594 579.0625 Z M 124.929688 287.289062 " fill-opacity="1" fill-rule="nonzero"/></g><g clip-path="url(#5085b92dae)"><path fill="#fed305" d="M 249.535156 337.113281 L 309.761719 295.589844 L 428.617188 464.875 L 453.535156 337.113281 L 998.5625 1215.71875 L 778.066406 1215.71875 L 762.96875 1212.289062 Z M 249.535156 337.113281 " fill-opacity="1" fill-rule="nonzero"/></g><g clip-path="url(#13f604e64d)"><path fill="#fed305" d="M 448.902344 332.960938 L 509.128906 291.4375 L 1135.191406 1215.71875 L 990.449219 1215.71875 Z M 448.902344 332.960938 " fill-opacity="1" fill-rule="nonzero"/></g><g clip-path="url(#f5a297580d)"><path fill="#fed305" d="M 719.359375 327.847656 L 770.796875 287.285156 L 1325.289062 1161.347656 L 1338.101562 1215.71875 L 1251.527344 1215.71875 Z M 719.359375 327.847656 " fill-opacity="1" fill-rule="nonzero"/></g><g clip-path="url(#3d491e3c59)"><path fill="#000000" d="M 96.921875 581.140625 C 92.332031 581.140625 88.613281 577.421875 88.613281 572.832031 L 88.613281 295.148438 C 88.613281 290.5625 92.332031 286.84375 96.921875 286.84375 L 168.398438 286.84375 C 189.808594 286.84375 205.363281 292.082031 215.0625 302.5625 C 224.875 312.929688 229.78125 330.09375 229.78125 354.0625 L 229.78125 366.9375 C 229.78125 380.761719 227.273438 391.964844 222.257812 400.546875 C 217.351562 409.132812 209.824219 414.761719 199.675781 417.4375 C 212.945312 420.78125 221.808594 428.640625 226.269531 441.011719 C 230.84375 453.277344 233.128906 468.269531 233.128906 485.992188 C 233.128906 505.054688 231.34375 521.722656 227.777344 535.992188 C 224.207031 550.257812 217.742188 561.351562 208.375 569.265625 C 199.007812 577.183594 185.683594 581.140625 168.398438 581.140625 Z M 146.152344 389.402344 C 146.152344 393.988281 149.871094 397.707031 154.460938 397.707031 L 158.195312 397.707031 C 163.660156 397.707031 167.171875 395.585938 168.734375 391.351562 C 170.292969 387.113281 171.074219 382.042969 171.074219 376.132812 L 171.074219 346.539062 C 171.074219 337.0625 166.894531 332.324219 158.53125 332.324219 L 154.460938 332.324219 C 149.871094 332.324219 146.152344 336.042969 146.152344 340.628906 Z M 152.007812 529.300781 C 167.28125 529.300781 174.921875 522.054688 174.921875 507.566406 L 174.921875 470.777344 C 174.921875 462.417969 173.640625 455.839844 171.074219 451.046875 C 168.621094 446.140625 163.9375 443.6875 157.023438 443.6875 L 154.460938 443.6875 C 149.871094 443.6875 146.152344 447.40625 146.152344 451.992188 L 146.152344 523.105469 C 146.152344 526.425781 148.683594 529.300781 152.007812 529.300781 Z M 152.007812 529.300781 " fill-opacity="1" fill-rule="nonzero"/></g><path fill="#000000" d="M 260.835938 581.140625 C 256.25 581.140625 252.53125 577.421875 252.53125 572.832031 L 252.53125 295.148438 C 252.53125 290.5625 256.25 286.84375 260.835938 286.84375 L 303.101562 286.84375 C 307.6875 286.84375 311.40625 290.5625 311.40625 295.148438 L 311.40625 522.667969 C 311.40625 527.257812 315.125 530.972656 319.714844 530.972656 L 363.648438 530.972656 C 368.238281 530.972656 371.953125 534.691406 371.953125 539.277344 L 371.953125 572.832031 C 371.953125 577.421875 368.238281 581.140625 363.648438 581.140625 Z M 260.835938 581.140625 " fill-opacity="1" fill-rule="nonzero"/><path fill="#000000" d="M 389.800781 581.140625 C 384.898438 581.140625 381.0625 576.914062 381.53125 572.035156 L 408.363281 294.347656 C 408.773438 290.089844 412.351562 286.84375 416.628906 286.84375 L 501.386719 286.84375 C 505.667969 286.84375 509.253906 290.097656 509.65625 294.363281 L 536.011719 572.046875 C 536.472656 576.921875 532.640625 581.140625 527.742188 581.140625 L 488.785156 581.140625 C 484.476562 581.140625 480.886719 577.851562 480.507812 573.5625 L 477.664062 541.226562 C 477.285156 536.9375 473.695312 533.648438 469.386719 533.648438 L 449.222656 533.648438 C 444.886719 533.648438 441.277344 536.988281 440.941406 541.3125 L 438.449219 573.472656 C 438.113281 577.800781 434.507812 581.140625 430.167969 581.140625 Z M 446.386719 477.738281 C 446.023438 482.554688 449.835938 486.664062 454.667969 486.664062 L 463.425781 486.664062 C 468.296875 486.664062 472.121094 482.496094 471.703125 477.644531 L 459.714844 338.332031 C 459.648438 337.582031 459.023438 337.007812 458.269531 337.007812 C 457.507812 337.007812 456.878906 337.589844 456.824219 338.347656 Z M 446.386719 477.738281 " fill-opacity="1" fill-rule="nonzero"/><g clip-path="url(#adada0ca57)"><path fill="#000000" d="M 623.515625 583.8125 C 602.21875 583.8125 585.046875 577.183594 572 563.914062 C 559.066406 550.648438 552.597656 532.089844 552.597656 508.234375 L 552.597656 372.457031 C 552.597656 343.917969 558.230469 322.070312 569.488281 306.910156 C 580.863281 291.746094 599.320312 284.167969 624.855469 284.167969 C 638.792969 284.167969 651.171875 286.730469 661.988281 291.859375 C 672.914062 296.988281 681.5 304.679688 687.746094 314.933594 C 693.988281 325.078125 697.113281 337.898438 697.113281 353.394531 L 697.113281 395.921875 C 697.113281 400.507812 693.390625 404.226562 688.804688 404.226562 L 646.875 404.226562 C 642.289062 404.226562 638.566406 400.507812 638.566406 395.921875 L 638.566406 360.75 C 638.566406 351.945312 637.453125 346.035156 635.222656 343.027344 C 632.996094 339.90625 629.539062 338.34375 624.855469 338.34375 C 619.390625 338.34375 615.710938 340.351562 613.816406 344.363281 C 611.917969 348.265625 610.972656 353.503906 610.972656 360.082031 L 610.972656 507.398438 C 610.972656 515.535156 612.140625 521.277344 614.484375 524.621094 C 616.9375 527.964844 620.394531 529.636719 624.855469 529.636719 C 629.871094 529.636719 633.382812 527.574219 635.390625 523.449219 C 637.511719 519.324219 638.566406 513.972656 638.566406 507.398438 L 638.566406 462.695312 C 638.566406 458.109375 642.289062 454.390625 646.875 454.390625 L 689.472656 454.390625 C 694.058594 454.390625 697.78125 458.109375 697.78125 462.695312 L 697.78125 510.074219 C 697.78125 535.933594 691.257812 554.71875 678.210938 566.421875 C 665.164062 578.019531 646.933594 583.8125 623.515625 583.8125 Z M 623.515625 583.8125 " fill-opacity="1" fill-rule="nonzero"/></g><path fill="#000000" d="M 725.824219 581.140625 C 721.238281 581.140625 717.515625 577.421875 717.515625 572.832031 L 717.515625 295.148438 C 717.515625 290.5625 721.238281 286.84375 725.824219 286.84375 L 767.417969 286.84375 C 772.003906 286.84375 775.726562 290.5625 775.726562 295.148438 L 775.726562 404.726562 L 801.660156 293.265625 C 802.535156 289.503906 805.886719 286.84375 809.75 286.84375 L 851.785156 286.84375 C 857.171875 286.84375 861.132812 291.886719 859.851562 297.117188 L 829.902344 419.625 C 829.582031 420.933594 829.585938 422.300781 829.910156 423.605469 L 866.648438 570.824219 C 867.957031 576.066406 863.992188 581.140625 858.589844 581.140625 L 814.816406 581.140625 C 810.929688 581.140625 807.566406 578.449219 806.710938 574.660156 L 776.058594 438.671875 L 776.058594 572.832031 C 776.058594 577.421875 772.339844 581.140625 767.753906 581.140625 Z M 725.824219 581.140625 " fill-opacity="1" fill-rule="nonzero"/><g clip-path="url(#dc7c16671a)"><path fill="#000000" d="M 96.921875 913.324219 C 92.332031 913.324219 88.613281 909.605469 88.613281 905.015625 L 88.613281 627.332031 C 88.613281 622.746094 92.332031 619.027344 96.921875 619.027344 L 198.058594 619.027344 C 202.648438 619.027344 206.367188 622.746094 206.367188 627.332031 L 206.367188 668.078125 C 206.367188 672.664062 202.648438 676.378906 198.058594 676.378906 L 156.132812 676.378906 C 151.542969 676.378906 147.824219 680.097656 147.824219 684.6875 L 147.824219 714.894531 C 147.824219 719.480469 151.542969 723.199219 156.132812 723.199219 L 195.050781 723.199219 C 199.636719 723.199219 203.355469 726.921875 203.355469 731.503906 L 203.355469 771.582031 C 203.355469 776.167969 199.636719 779.886719 195.050781 779.886719 L 156.132812 779.886719 C 151.542969 779.886719 147.824219 783.605469 147.824219 788.191406 L 147.824219 905.015625 C 147.824219 909.605469 144.105469 913.324219 139.519531 913.324219 Z M 96.921875 913.324219 " fill-opacity="1" fill-rule="nonzero"/></g><path fill="#000000" d="M 233.742188 913.324219 C 229.152344 913.324219 225.433594 909.605469 225.433594 905.015625 L 225.433594 627.332031 C 225.433594 622.746094 229.152344 619.027344 233.742188 619.027344 L 315.753906 619.027344 C 330.808594 619.027344 342.183594 622.484375 349.875 629.394531 C 357.570312 636.195312 362.699219 645.78125 365.265625 658.15625 C 367.941406 670.417969 369.277344 684.855469 369.277344 701.464844 C 369.277344 717.515625 367.21875 730.335938 363.089844 739.921875 C 359.078125 749.507812 351.4375 756.140625 340.175781 759.820312 C 349.429688 761.714844 355.898438 766.339844 359.578125 773.699219 C 363.371094 780.945312 365.265625 790.363281 365.265625 801.960938 L 365.265625 905.015625 C 365.265625 909.605469 361.546875 913.324219 356.957031 913.324219 L 315.53125 913.324219 C 310.945312 913.324219 307.226562 909.605469 307.226562 905.015625 L 307.226562 798.113281 C 307.226562 789.527344 305.441406 784.234375 301.871094 782.226562 C 299.792969 780.953125 296.921875 780.0625 293.265625 779.554688 C 288.722656 778.921875 284.980469 782.769531 284.980469 787.355469 L 284.980469 905.015625 C 284.980469 909.605469 281.261719 913.324219 276.671875 913.324219 Z M 285.3125 719.746094 C 285.3125 724.332031 289.03125 728.050781 293.621094 728.050781 L 299.53125 728.050781 C 307.671875 728.050781 311.742188 719.1875 311.742188 701.464844 C 311.742188 689.980469 310.847656 682.457031 309.066406 678.890625 C 307.28125 675.324219 303.9375 673.539062 299.027344 673.539062 L 293.621094 673.539062 C 289.03125 673.539062 285.3125 677.257812 285.3125 681.84375 Z M 285.3125 719.746094 " fill-opacity="1" fill-rule="nonzero"/><path fill="#000000" d="M 394.3125 913.324219 C 389.722656 913.324219 386.003906 909.605469 386.003906 905.015625 L 386.003906 627.332031 C 386.003906 622.746094 389.722656 619.027344 394.3125 619.027344 L 434.566406 619.027344 C 439.15625 619.027344 442.875 622.746094 442.875 627.332031 L 442.875 905.015625 C 442.875 909.605469 439.15625 913.324219 434.566406 913.324219 Z M 394.3125 913.324219 " fill-opacity="1" fill-rule="nonzero"/><path fill="#000000" d="M 474.597656 913.324219 C 470.007812 913.324219 466.292969 909.605469 466.292969 905.015625 L 466.292969 627.332031 C 466.292969 622.746094 470.007812 619.027344 474.597656 619.027344 L 547.246094 619.027344 C 568.429688 619.027344 584.378906 624.933594 595.082031 636.75 C 605.785156 648.457031 611.136719 665.625 611.136719 688.253906 L 611.136719 826.035156 C 611.136719 853.90625 606.234375 875.421875 596.417969 890.582031 C 586.71875 905.742188 569.65625 913.324219 545.238281 913.324219 Z M 525.5 853.011719 C 525.5 857.601562 529.222656 861.320312 533.808594 861.320312 L 535.703125 861.320312 C 546.519531 861.320312 551.929688 856.082031 551.929688 845.601562 L 551.929688 693.769531 C 551.929688 683.960938 550.589844 677.660156 547.914062 674.875 C 545.347656 671.976562 540.054688 670.53125 532.023438 670.53125 C 528.421875 670.53125 525.5 673.449219 525.5 677.050781 Z M 525.5 853.011719 " fill-opacity="1" fill-rule="nonzero"/><path fill="#000000" d="M 636.34375 913.324219 C 631.4375 913.324219 627.601562 909.097656 628.078125 904.21875 L 654.902344 626.53125 C 655.316406 622.273438 658.894531 619.027344 663.175781 619.027344 L 747.929688 619.027344 C 752.210938 619.027344 755.792969 622.28125 756.199219 626.546875 L 782.554688 904.230469 C 783.019531 909.109375 779.183594 913.324219 774.285156 913.324219 L 735.328125 913.324219 C 731.023438 913.324219 727.429688 910.035156 727.054688 905.746094 L 724.203125 873.410156 C 723.828125 869.121094 720.234375 865.832031 715.929688 865.832031 L 695.765625 865.832031 C 691.429688 865.832031 687.820312 869.171875 687.484375 873.496094 L 684.996094 905.660156 C 684.660156 909.984375 681.050781 913.324219 676.710938 913.324219 Z M 692.929688 809.921875 C 692.566406 814.738281 696.382812 818.847656 701.214844 818.847656 L 709.972656 818.847656 C 714.839844 818.847656 718.664062 814.679688 718.246094 809.828125 L 706.257812 670.515625 C 706.191406 669.765625 705.5625 669.191406 704.8125 669.191406 C 704.054688 669.191406 703.425781 669.773438 703.367188 670.53125 Z M 692.929688 809.921875 " fill-opacity="1" fill-rule="nonzero"/><path fill="#000000" d="M 837.386719 913.324219 C 832.800781 913.324219 829.078125 909.605469 829.078125 905.015625 L 829.078125 817.480469 C 829.078125 816.832031 829.003906 816.1875 828.855469 815.558594 L 784.511719 629.253906 C 783.269531 624.035156 787.230469 619.027344 792.597656 619.027344 L 833.402344 619.027344 C 837.46875 619.027344 840.9375 621.972656 841.597656 625.984375 L 856.847656 718.6875 L 872.09375 625.984375 C 872.75 621.972656 876.222656 619.027344 880.289062 619.027344 L 920.9375 619.027344 C 926.300781 619.027344 930.257812 624.03125 929.019531 629.246094 L 884.835938 815.5625 C 884.683594 816.1875 884.609375 816.832031 884.609375 817.476562 L 884.609375 905.015625 C 884.609375 909.605469 880.890625 913.324219 876.304688 913.324219 Z M 837.386719 913.324219 " fill-opacity="1" fill-rule="nonzero"/></svg>