<?xml version="1.0" encoding="UTF-8" standalone="no"?>
<svg
   width="483.26422mm"
   height="328.61252mm"
   viewBox="0 0 483.26422 328.61252"
   version="1.1"
   id="svg5"
   xmlns="http://www.w3.org/2000/svg"
   xmlns:svg="http://www.w3.org/2000/svg">
  <defs
     id="defs2">
    <clipPath
       id="6a0847001b">
      <path
         d="m 90,668 h 597 v 547.7188 H 90 Z m 0,0"
         clip-rule="nonzero"
         id="path824" />
    </clipPath>
    <clipPath
       id="4b99a03a2e">
      <path
         d="m 578,334 h 700 v 881.7188 H 578 Z m 0,0"
         clip-rule="nonzero"
         id="path827" />
    </clipPath>
    <clipPath
       id="32117acf9a">
      <path
         d="m 794,288 h 664.7305 v 927.7188 H 794 Z m 0,0"
         clip-rule="nonzero"
         id="path830" />
    </clipPath>
    <clipPath
       id="aca309d2a2">
      <path
         d="m 92,287 h 717 v 928.7188 H 92 Z m 0,0"
         clip-rule="nonzero"
         id="path833" />
    </clipPath>
    <clipPath
       id="5085b92dae">
      <path
         d="m 249,295 h 750 v 920.7188 H 249 Z m 0,0"
         clip-rule="nonzero"
         id="path836" />
    </clipPath>
    <clipPath
       id="13f604e64d">
      <path
         d="m 448,291 h 688 v 924.7188 H 448 Z m 0,0"
         clip-rule="nonzero"
         id="path839" />
    </clipPath>
    <clipPath
       id="f5a297580d">
      <path
         d="m 719,287 h 620 v 928.7188 H 719 Z m 0,0"
         clip-rule="nonzero"
         id="path842" />
    </clipPath>
    <clipPath
       id="3d491e3c59">
      <path
         d="M 88.480469,286 H 234 V 582 H 88.480469 Z m 0,0"
         clip-rule="nonzero"
         id="path845" />
    </clipPath>
    <clipPath
       id="adada0ca57">
      <path
         d="M 552,284.21875 H 698 V 584 H 552 Z m 0,0"
         clip-rule="nonzero"
         id="path848" />
    </clipPath>
    <clipPath
       id="dc7c16671a">
      <path
         d="M 88.480469,619 H 207 V 914 H 88.480469 Z m 0,0"
         clip-rule="nonzero"
         id="path851" />
    </clipPath>
  </defs>
  <g
     id="layer1"
     transform="translate(166.68446,106.10223)">
    <g
       id="g964"
       transform="matrix(0.35277779,0,0,0.35277779,-197.94526,-206.36829)">
      <g
         clip-path="url(#6a0847001b)"
         id="g858">
        <path
           fill="#fed305"
           d="M 90.105469,907.09375 146.17578,668.33594 416.15234,701.55469 686.08203,1215.7188 H 365.48437 Z m 0,0"
           fill-opacity="1"
           fill-rule="nonzero"
           id="path856" />
      </g>
      <g
         clip-path="url(#4b99a03a2e)"
         id="g862">
        <path
           fill="#fed305"
           d="m 578.14062,401.85547 33.22657,-67.77735 h 83.07031 l 201.44141,207.61329 147.44919,207.61718 233.8985,466.41021 H 1133.8398 L 855.38672,807.07031 605.13672,535.46484 Z m 0,0"
           fill-opacity="1"
           fill-rule="nonzero"
           id="path860" />
      </g>
      <g
         clip-path="url(#32117acf9a)"
         id="g866">
        <path
           fill="#fed305"
           d="m 794.12109,329.92578 60.22657,-41.52344 604.14844,927.31646 h -123.1016 z m 0,0"
           fill-opacity="1"
           fill-rule="nonzero"
           id="path864" />
      </g>
      <g
         clip-path="url(#aca309d2a2)"
         id="g870">
        <path
           fill="#fed305"
           d="m 124.92969,287.28906 h 60.22656 l 112.625,202.5 v -66.4375 l 510.87891,141.17969 -69.01563,596.81645 41.12891,54.3711 H 645.5 L 362.15625,875.95312 92.183594,579.0625 Z m 0,0"
           fill-opacity="1"
           fill-rule="nonzero"
           id="path868" />
      </g>
      <g
         clip-path="url(#5085b92dae)"
         id="g874">
        <path
           fill="#fed305"
           d="M 249.53516,337.11328 309.76172,295.58984 428.61719,464.875 453.53516,337.11328 998.5625,1215.7188 H 778.06641 l -15.09766,-3.4297 z m 0,0"
           fill-opacity="1"
           fill-rule="nonzero"
           id="path872" />
      </g>
      <g
         clip-path="url(#13f604e64d)"
         id="g878">
        <path
           fill="#fed305"
           d="m 448.90234,332.96094 60.22657,-41.52344 626.06249,924.2813 H 990.44922 Z m 0,0"
           fill-opacity="1"
           fill-rule="nonzero"
           id="path876" />
      </g>
      <g
         clip-path="url(#f5a297580d)"
         id="g882">
        <path
           fill="#fed305"
           d="m 719.35937,327.84766 51.4375,-40.5625 554.49223,874.06254 12.8125,54.3711 h -86.5743 z m 0,0"
           fill-opacity="1"
           fill-rule="nonzero"
           id="path880" />
      </g>
      <g
         clip-path="url(#3d491e3c59)"
         id="g886">
        <path
           fill="#000000"
           d="m 96.921875,581.14062 c -4.589844,0 -8.308594,-3.71875 -8.308594,-8.30859 V 295.14844 c 0,-4.58594 3.71875,-8.30469 8.308594,-8.30469 h 71.476565 c 21.41015,0 36.96484,5.23828 46.66406,15.71875 9.8125,10.36719 14.71875,27.53125 14.71875,51.5 v 12.875 c 0,13.82422 -2.50781,25.02734 -7.52344,33.60937 -4.90625,8.58594 -12.43359,14.21485 -22.58203,16.89063 13.26953,3.34375 22.13281,11.20312 26.59375,23.57422 4.57422,12.26562 6.85938,27.25781 6.85938,44.98047 0,19.0625 -1.78516,35.73047 -5.35157,50 -3.57031,14.26562 -10.03515,25.35937 -19.40234,33.27343 -9.36719,7.91797 -22.69141,11.875 -39.97656,11.875 z M 146.15234,389.40234 c 0,4.58594 3.71875,8.30469 8.3086,8.30469 h 3.73437 c 5.46485,0 8.97656,-2.12109 10.53906,-6.35547 1.5586,-4.23828 2.33985,-9.30859 2.33985,-15.21875 v -29.59375 c 0,-9.47656 -4.17969,-14.21484 -12.54297,-14.21484 h -4.07031 c -4.58985,0 -8.3086,3.71875 -8.3086,8.30469 z m 5.85547,139.89844 c 15.27344,0 22.91406,-7.24609 22.91406,-21.73437 v -36.78907 c 0,-8.35937 -1.28125,-14.9375 -3.84765,-19.73047 -2.45313,-4.90625 -7.13672,-7.35937 -14.05078,-7.35937 h -2.5625 c -4.58985,0 -8.3086,3.71875 -8.3086,8.30469 v 71.11328 c 0,3.32031 2.53125,6.19531 5.85547,6.19531 z m 0,0"
           fill-opacity="1"
           fill-rule="nonzero"
           id="path884" />
      </g>
      <path
         fill="#000000"
         d="m 260.83594,581.14062 c -4.58594,0 -8.30469,-3.71875 -8.30469,-8.30859 V 295.14844 c 0,-4.58594 3.71875,-8.30469 8.30469,-8.30469 h 42.26562 c 4.58594,0 8.30469,3.71875 8.30469,8.30469 v 227.51953 c 0,4.58984 3.71875,8.30469 8.30859,8.30469 h 43.9336 c 4.58984,0 8.30468,3.71875 8.30468,8.30468 v 33.55469 c 0,4.58984 -3.71484,8.30859 -8.30468,8.30859 z m 0,0"
         fill-opacity="1"
         fill-rule="nonzero"
         id="path888" />
      <path
         fill="#000000"
         d="m 389.80078,581.14062 c -4.90234,0 -8.73828,-4.22656 -8.26953,-9.10546 l 26.83203,-277.6875 c 0.41016,-4.25782 3.98828,-7.50391 8.26563,-7.50391 h 84.75781 c 4.28125,0 7.86719,3.25391 8.26953,7.51953 l 26.35547,277.68359 c 0.46094,4.875 -3.3711,9.09375 -8.26953,9.09375 h -38.95703 c -4.3086,0 -7.89844,-3.28906 -8.27735,-7.57812 l -2.84375,-32.33594 c -0.3789,-4.28906 -3.96875,-7.57812 -8.27734,-7.57812 h -20.16406 c -4.33594,0 -7.94532,3.33984 -8.28125,7.66406 l -2.49219,32.16016 c -0.33594,4.32812 -3.94141,7.66796 -8.28125,7.66796 z m 56.58594,-103.40234 c -0.36328,4.81641 3.44922,8.92578 8.28125,8.92578 h 8.75781 c 4.87109,0 8.69531,-4.16797 8.27734,-9.01953 l -11.98828,-139.3125 c -0.0664,-0.75 -0.6914,-1.32422 -1.44531,-1.32422 -0.76172,0 -1.39062,0.58203 -1.44531,1.33985 z m 0,0"
         fill-opacity="1"
         fill-rule="nonzero"
         id="path890" />
      <g
         clip-path="url(#adada0ca57)"
         id="g894">
        <path
           fill="#000000"
           d="m 623.51562,583.8125 c -21.29687,0 -38.46875,-6.62891 -51.51562,-19.89844 -12.93359,-13.26562 -19.40234,-31.82422 -19.40234,-55.67969 V 372.45703 c 0,-28.53906 5.63281,-50.38672 16.89062,-65.54687 11.375,-15.16407 29.83203,-22.74219 55.36719,-22.74219 13.9375,0 26.3164,2.5625 37.13281,7.6914 10.92578,5.12891 19.51172,12.82032 25.75781,23.07422 6.24219,10.14453 9.36719,22.96485 9.36719,38.46094 v 42.52734 c 0,4.58594 -3.72266,8.30469 -8.30859,8.30469 H 646.875 c -4.58594,0 -8.30859,-3.71875 -8.30859,-8.30469 V 360.75 c 0,-8.80469 -1.11329,-14.71484 -3.34375,-17.72266 -2.22657,-3.12109 -5.6836,-4.68359 -10.36719,-4.68359 -5.46485,0 -9.14453,2.00781 -11.03906,6.01953 -1.89844,3.90234 -2.84375,9.14063 -2.84375,15.71875 v 147.31641 c 0,8.13672 1.16796,13.8789 3.51171,17.22265 2.45313,3.34375 5.91016,5.01563 10.3711,5.01563 5.01562,0 8.52734,-2.0625 10.53515,-6.1875 2.1211,-4.125 3.17579,-9.47656 3.17579,-16.05078 v -44.70313 c 0,-4.58594 3.72265,-8.30469 8.30859,-8.30469 h 42.59766 c 4.58593,0 8.30859,3.71875 8.30859,8.30469 v 47.37891 c 0,25.85937 -6.52344,44.64453 -19.57031,56.34765 -13.04688,11.59766 -31.27735,17.39063 -54.69532,17.39063 z m 0,0"
           fill-opacity="1"
           fill-rule="nonzero"
           id="path892" />
      </g>
      <path
         fill="#000000"
         d="m 725.82422,581.14062 c -4.58594,0 -8.3086,-3.71875 -8.3086,-8.30859 V 295.14844 c 0,-4.58594 3.72266,-8.30469 8.3086,-8.30469 h 41.59375 c 4.58594,0 8.30859,3.71875 8.30859,8.30469 v 109.57812 l 25.9336,-111.46094 c 0.875,-3.76171 4.22656,-6.42187 8.08984,-6.42187 h 42.03516 c 5.38671,0 9.34765,5.04297 8.0664,10.27344 L 829.90234,419.625 c -0.32031,1.30859 -0.3164,2.67578 0.008,3.98047 l 36.73828,147.21875 c 1.30859,5.24219 -2.65625,10.3164 -8.0586,10.3164 h -43.77343 c -3.88672,0 -7.25,-2.6914 -8.10547,-6.48046 L 776.05859,438.67187 v 134.16016 c 0,4.58984 -3.71875,8.30859 -8.30468,8.30859 z m 0,0"
         fill-opacity="1"
         fill-rule="nonzero"
         id="path896" />
      <g
         clip-path="url(#dc7c16671a)"
         id="g900">
        <path
           fill="#000000"
           d="m 96.921875,913.32422 c -4.589844,0 -8.308594,-3.71875 -8.308594,-8.3086 V 627.33203 c 0,-4.58594 3.71875,-8.30469 8.308594,-8.30469 H 198.05859 c 4.58985,0 8.3086,3.71875 8.3086,8.30469 v 40.74609 c 0,4.58594 -3.71875,8.30079 -8.3086,8.30079 h -41.92578 c -4.58984,0 -8.30859,3.71875 -8.30859,8.30859 v 30.20703 c 0,4.58594 3.71875,8.30469 8.30859,8.30469 h 38.91797 c 4.58594,0 8.30469,3.72265 8.30469,8.30469 v 40.07812 c 0,4.58594 -3.71875,8.30469 -8.30469,8.30469 h -38.91797 c -4.58984,0 -8.30859,3.71875 -8.30859,8.30469 v 116.82421 c 0,4.58985 -3.71875,8.3086 -8.30469,8.3086 z m 0,0"
           fill-opacity="1"
           fill-rule="nonzero"
           id="path898" />
      </g>
      <path
         fill="#000000"
         d="m 233.74219,913.32422 c -4.58985,0 -8.3086,-3.71875 -8.3086,-8.3086 V 627.33203 c 0,-4.58594 3.71875,-8.30469 8.3086,-8.30469 h 82.01172 c 15.05468,0 26.42968,3.45703 34.12109,10.36719 7.69531,6.80078 12.82422,16.38672 15.39062,28.76172 2.67579,12.26172 4.01172,26.69922 4.01172,43.30859 0,16.05078 -2.05859,28.8711 -6.1875,38.45703 -4.01172,9.58594 -11.65234,16.21875 -22.91406,19.89844 9.25391,1.89453 15.72266,6.51953 19.40234,13.87891 3.79297,7.24609 5.6875,16.66406 5.6875,28.26172 v 103.05468 c 0,4.58985 -3.71875,8.3086 -8.30859,8.3086 h -41.42578 c -4.58594,0 -8.30469,-3.71875 -8.30469,-8.3086 V 798.11328 c 0,-8.58594 -1.78515,-13.87891 -5.35547,-15.88672 -2.07812,-1.27344 -4.94922,-2.16406 -8.60547,-2.67187 -4.54296,-0.63282 -8.28515,3.21484 -8.28515,7.80078 v 117.66015 c 0,4.58985 -3.71875,8.3086 -8.3086,8.3086 z M 285.3125,719.74609 c 0,4.58594 3.71875,8.30469 8.30859,8.30469 h 5.91016 c 8.14062,0 12.21094,-8.86328 12.21094,-26.58594 0,-11.48437 -0.89453,-19.00781 -2.67578,-22.57422 -1.78516,-3.5664 -5.12891,-5.35156 -10.03907,-5.35156 h -5.40625 c -4.58984,0 -8.30859,3.71875 -8.30859,8.30469 z m 0,0"
         fill-opacity="1"
         fill-rule="nonzero"
         id="path902" />
      <path
         fill="#000000"
         d="m 394.3125,913.32422 c -4.58984,0 -8.30859,-3.71875 -8.30859,-8.3086 V 627.33203 c 0,-4.58594 3.71875,-8.30469 8.30859,-8.30469 h 40.25391 c 4.58984,0 8.30859,3.71875 8.30859,8.30469 v 277.68359 c 0,4.58985 -3.71875,8.3086 -8.30859,8.3086 z m 0,0"
         fill-opacity="1"
         fill-rule="nonzero"
         id="path904" />
      <path
         fill="#000000"
         d="m 474.59766,913.32422 c -4.58985,0 -8.30469,-3.71875 -8.30469,-8.3086 V 627.33203 c 0,-4.58594 3.71484,-8.30469 8.30469,-8.30469 h 72.64843 c 21.1836,0 37.13282,5.90625 47.83594,17.72266 10.70313,11.70703 16.05469,28.875 16.05469,51.50391 v 137.78125 c 0,27.87109 -4.90235,49.38671 -14.71875,64.54687 -9.69922,15.16016 -26.76172,22.74219 -51.17969,22.74219 z M 525.5,853.01172 c 0,4.58984 3.72266,8.30859 8.30859,8.30859 h 1.89453 c 10.81641,0 16.22657,-5.23828 16.22657,-15.71875 V 693.76953 c 0,-9.80859 -1.33985,-16.10937 -4.01563,-18.89453 -2.5664,-2.89844 -7.85937,-4.34375 -15.89062,-4.34375 -3.60157,0 -6.52344,2.91797 -6.52344,6.51953 z m 0,0"
         fill-opacity="1"
         fill-rule="nonzero"
         id="path906" />
      <path
         fill="#000000"
         d="m 636.34375,913.32422 c -4.90625,0 -8.74219,-4.22656 -8.26563,-9.10547 l 26.82422,-277.6875 c 0.41407,-4.25781 3.99219,-7.50391 8.27344,-7.50391 h 84.75391 c 4.28125,0 7.86328,3.25391 8.26953,7.51953 l 26.35547,277.6836 c 0.46484,4.8789 -3.3711,9.09375 -8.26953,9.09375 h -38.95704 c -4.30468,0 -7.89843,-3.28906 -8.27343,-7.57813 l -2.85157,-32.33593 c -0.375,-4.28907 -3.96875,-7.57813 -8.27343,-7.57813 h -20.16407 c -4.33593,0 -7.94531,3.33984 -8.28125,7.66406 l -2.48828,32.16407 c -0.33593,4.32421 -3.94531,7.66406 -8.28515,7.66406 z m 56.58594,-103.40235 c -0.36328,4.81641 3.45312,8.92579 8.28515,8.92579 h 8.75782 c 4.86718,0 8.6914,-4.16797 8.27343,-9.01954 l -11.98828,-139.3125 c -0.0664,-0.75 -0.69531,-1.32421 -1.44531,-1.32421 -0.75781,0 -1.38672,0.58203 -1.44531,1.33984 z m 0,0"
         fill-opacity="1"
         fill-rule="nonzero"
         id="path908" />
      <path
         fill="#000000"
         d="m 837.38672,913.32422 c -4.58594,0 -8.3086,-3.71875 -8.3086,-8.3086 v -87.53515 c 0,-0.64844 -0.0742,-1.29297 -0.22265,-1.92188 L 784.51172,629.25391 c -1.24219,-5.21875 2.71875,-10.22657 8.08594,-10.22657 h 40.80468 c 4.06641,0 7.53516,2.94532 8.19532,6.95703 l 15.25,92.70313 15.24609,-92.70313 c 0.65625,-4.01171 4.12891,-6.95703 8.19531,-6.95703 h 40.64844 c 5.36328,0 9.32031,5.00391 8.08203,10.21875 L 884.83594,815.5625 c -0.15235,0.625 -0.22657,1.26953 -0.22657,1.91406 v 87.53906 c 0,4.58985 -3.71875,8.3086 -8.30468,8.3086 z m 0,0"
         fill-opacity="1"
         fill-rule="nonzero"
         id="path910" />
    </g>
  </g>
</svg>
